<svg xmlns="http://www.w3.org/2000/svg" viewBox="0 0 64 64" role="img" aria-label="Gift icon">
  <defs>
    <linearGradient id="g" x1="0%" y1="0%" x2="100%" y2="100%">
      <stop offset="0%" stop-color="#ff4d8d"/>
      <stop offset="100%" stop-color="#ffb97a"/>
    </linearGradient>
  </defs>
  <rect width="64" height="64" rx="14" fill="url(#g)"/>
  <rect x="12" y="22" width="40" height="30" rx="6" fill="rgba(255,255,255,0.92)"/>
  <rect x="29" y="16" width="6" height="40" rx="3" fill="url(#g)"/>
  <rect x="12" y="34" width="40" height="6" rx="3" fill="url(#g)"/>
  <path d="M28 22c-4 0-7-3-7-7s3-7 7-5c3 1 4 6 4 6s-1-2-4-2-4 2-4 3 1 4 4 5z" fill="#fff"/>
  <path d="M36 22c4 0 7-3 7-7s-3-7-7-5c-3 1-4 6-4 6s1-2 4-2 4 2 4 3-1 4-4 5z" fill="#fff"/>
</svg>
